# xmcd
#
# Track frame offsets: 
#        150
#        12835
#        25858
#        37065
#        49235
#        62525
#        75125
#        87583
#        101242
#        112759
#        126402
#        136687
#        148759
#        158807
#        169542
#        181202
#        194292
#        204404
#        216202
#        226858
#        239209
#        251647
#        264669
#        275327
#        287239
#        299646
#
# Disc length: 4284 seconds
#
# Revision: 2
# Processed by: cddbd v1.5.2PL0 Copyright (c) Steve Scherf et al.
# Submitted via: ExactAudioCopyFreeDBPlugin 1.0
#
DISCID=7f10ba1a
DTITLE=The "5" Royales - It's Hard But It's Fair:  The King Hits and R
DTITLE=arities
DYEAR=2005
DGENRE=Rhythm and Blues
TTITLE0=My Wants for Love
TTITLE1=I'm Gonna Run it Down
TTITLE2=I Can't Stand Losing You
TTITLE3=Mohawk Squaw
TTITLE4=One Mistake
TTITLE5=I Need Your Lovin' Baby
TTITLE6=Every Dog Has His Day
TTITLE7=Women About to Make Me Go Crazy
TTITLE8=Behave Yourself
TTITLE9=Do Unto You
TTITLE10=Mine Forevermore
TTITLE11=I Ain't Getting Caught
TTITLE12=I Could Love You
TTITLE13=Say It
TTITLE14=Think
TTITLE15=The Feeling is Real
TTITLE16=The Slummer the Slum
TTITLE17=Your Only Love
TTITLE18=Tell the Truth
TTITLE19=Dedicated to the One I Love
TTITLE20=I Know It's Hard But It's Fair
TTITLE21=Don't Give No More Than You Can Take
TTITLE22=(Something Moves Me) Within My Heart
TTITLE23=It Hurts Inside
TTITLE24=Why
TTITLE25=I'm with You
EXTD=
EXTT0=
EXTT1=
EXTT2=
EXTT3=
EXTT4=
EXTT5=
EXTT6=
EXTT7=
EXTT8=
EXTT9=
EXTT10=
EXTT11=
EXTT12=
EXTT13=
EXTT14=
EXTT15=
EXTT16=
EXTT17=
EXTT18=
EXTT19=
EXTT20=
EXTT21=
EXTT22=
EXTT23=
EXTT24=
EXTT25=
PLAYORDER=
